<?xml version="1.0" encoding="UTF-8" standalone="no"?>
<!-- Created with Inkscape (http://www.inkscape.org/) -->

<svg
   xmlns:dc="http://purl.org/dc/elements/1.1/"
   xmlns:cc="http://creativecommons.org/ns#"
   xmlns:rdf="http://www.w3.org/1999/02/22-rdf-syntax-ns#"
   xmlns:svg="http://www.w3.org/2000/svg"
   xmlns="http://www.w3.org/2000/svg"
   xmlns:sodipodi="http://sodipodi.sourceforge.net/DTD/sodipodi-0.dtd"
   xmlns:inkscape="http://www.inkscape.org/namespaces/inkscape"
   width="400"
   height="400"
   id="svg4049"
   version="1.1"
   inkscape:version="0.48.4 r9939"
   sodipodi:docname="ktan_icon.svg"
   inkscape:export-filename="/home/kevin/repo/ktan/data/ktan_icon.png"
   inkscape:export-xdpi="91.93"
   inkscape:export-ydpi="91.93">
  <defs
     id="defs4051" />
  <sodipodi:namedview
     id="base"
     pagecolor="#ffffff"
     bordercolor="#666666"
     borderopacity="1.0"
     inkscape:pageopacity="0"
     inkscape:pageshadow="2"
     inkscape:zoom="0.98994949"
     inkscape:cx="116.43826"
     inkscape:cy="158.4667"
     inkscape:document-units="px"
     inkscape:current-layer="layer1"
     showgrid="false"
     inkscape:window-width="1680"
     inkscape:window-height="978"
     inkscape:window-x="0"
     inkscape:window-y="24"
     inkscape:window-maximized="1"
     units="px" />
  <metadata
     id="metadata4054">
    <rdf:RDF>
      <cc:Work
         rdf:about="">
        <dc:format>image/svg+xml</dc:format>
        <dc:type
           rdf:resource="http://purl.org/dc/dcmitype/StillImage" />
        <dc:title></dc:title>
      </cc:Work>
    </rdf:RDF>
  </metadata>
  <g
     inkscape:label="Layer 1"
     inkscape:groupmode="layer"
     id="layer1"
     transform="translate(0,-652.3621)">
    <g
       id="g3807"
       transform="translate(0,2)">
      <path
         id="path7381"
         d="m 191.92724,903.50451 0.96195,-0.58707 0.962,-1.6446 0.96193,-2.75999 0.96206,-3.87626 0.96199,-4.87456 0.96192,-5.87285 0.96201,-6.87107 0.96192,-7.69354 0.96206,-8.51568 0.96198,-9.27921 0.96195,-9.86648 0.96198,-10.45352 1.92398,-10.92381 0.96199,-11.33471 0.96194,-11.51082 0.962,-11.74562 0.96194,-11.74561 0.96203,-11.74597 0.96194,-11.56952 0.96202,-11.276 0.96192,-10.92347 0.96198,-10.51256 0.96206,-9.92487 0.96195,-9.27916 0.96198,-8.57442 0.96192,-7.75226 0.96201,-6.9301 0.96203,-5.99022 0.96195,-5.05065 0.96199,-3.9937 0.96194,-2.93641 0.96199,-1.87945 0.96206,-0.82215 0.96192,0.2935 0.96198,1.3508 0.96198,2.46646 0.96195,3.46505 0.96206,4.46331 1.92393,5.46191 0.96192,6.34276 0.96206,7.1649 0.96199,7.98706 0.96194,8.63312 0.96199,9.27916 0.96195,9.80747 0.96203,10.27775 0.96195,10.62996 0.96201,10.86477 0.96192,10.98217 0.96198,11.09991 0.96203,11.04087 0.96198,10.86476 0.96198,10.62997 0.96192,10.33612 0.962,9.86651 0.96204,9.39656 0.96195,8.75084 0.96199,8.10445 0.96194,7.39972 0.96196,6.57758 0.96203,5.75544 0.96198,4.81581 0.96198,3.87633 0.96192,2.9364 1.92407,1.99652 0.96192,0.93987 0.96199,-0.0587 0.96197,-0.99822 0.962,-1.99684 0.96202,-2.93646 0.96192,-3.81759 0.96198,-4.69809 0.96198,-5.52061 0.96192,-6.34275 0.96206,-6.98849 0.96195,-7.63487 0.96198,-8.16348 0.96198,-8.69181 0.96192,-9.04401 0.96206,-9.39657 0.96199,-9.63171 0.96194,-9.74876 0.96199,-9.80781 0.96195,-9.74911 0.96205,-9.63137 0.96196,-9.45527 0.96195,-9.10306 0.96198,-8.75051 0.96195,-8.33961 0.96203,-7.81096 1.92393,-7.22361 0.96201,-6.57757 0.96195,-5.8728 0.96203,-5.16841 0.96199,-4.3459 0.96195,-3.58245 0.96195,-2.70126 0.96198,-1.93816 0.96203,-0.99825 0.96198,-0.1761 0.96195,0.64606 0.96195,1.5269"
         style="fill:none;stroke:#000000;stroke-width:4;stroke-linecap:butt;stroke-linejoin:miter;stroke-miterlimit:4;stroke-opacity:1;stroke-dasharray:none"
         inkscape:connector-curvature="0" />
      <path
         inkscape:connector-curvature="0"
         d="m 293.89708,683.91779 0.96198,2.29035 0.96203,3.11251 0.96195,3.8176 0.96201,4.58071 0.96192,5.16806 0.96201,5.7554 0.96204,6.34276 0.96194,6.81271 0.96198,7.16491 0.96196,7.57581 0.96195,7.81096 0.96206,7.98705 0.96194,8.10481 1.92394,8.16317 0.96201,8.16351 0.96203,7.98705 0.96192,7.86967 0.96201,7.63451 0.96195,7.34136 0.96196,6.92975 0.96205,6.51886 0.96196,6.04927 0.96195,5.52061 0.96195,4.9329 0.96201,4.34591 0.96203,3.75889 0.96195,3.05381 0.96193,2.34907 0.962,1.70334 0.96195,0.99823 0.96203,0.2935 0.96201,-0.41091 0.96192,-1.05729 0.96198,-1.70295 0.96198,-2.2904 0.96203,-2.9364 0.96196,-3.52374 0.96194,-3.99371 0.96199,-4.522 1.92398,-4.87456 0.96201,-5.34416 0.96195,-5.638 0.962,-5.87281 0.96193,-6.10797 0.96203,-6.28404 0.96198,-6.34276 0.96198,-6.40112 0.96196,-6.34276 0.96194,-6.34276 0.96203,-6.16665 0.96199,-5.99021 0.96195,-5.69671 0.96201,-5.4619 0.96192,-5.16806 0.96206,-4.75715 0.96192,-4.34591 0.96201,-3.87597 0.96195,-3.46504 0.96195,-2.99511 0.96207,-2.4668 0.96194,-1.93781 0.96198,-1.4095 0.96195,-0.88085 0.96199,-0.35255 0.96203,0.17611 1.92393,0.70475 0.96195,1.17469 0.96201,1.64431 0.96203,2.11425 0.96195,2.5255 0.96195,2.87771 0.96198,3.2886 0.96198,3.64116 0.96203,3.8763 0.96195,4.1111 0.96199,4.34591 0.96194,4.52201 0.96199,4.5807 0.96203,4.69847 0.96195,4.75715 0.96201,4.6981 0.96192,4.63976 0.96195,4.522 0.96203,4.40461 0.96201,4.28721 0.96195,3.9937 0.96195,3.81726 0.96195,3.52376 0.96206,3.2299 0.96198,2.93641 0.96195,2.5255 1.92393,2.23165 0.96202,1.87944 0.962,1.46821 0.96195,1.11566 0.96198,0.70475 0.96195,0.35254 0.96206,0 0.96195,-0.41124 0.96195,-0.76345 0.96199,-1.11566 0.96194,-1.4095 0.96206,-1.70335 0.96199,-1.99685"
         style="fill:none;stroke:#000000;stroke-width:4;stroke-linecap:butt;stroke-linejoin:miter;stroke-miterlimit:4;stroke-opacity:1;stroke-dasharray:none"
         id="path7383" />
      <path
         inkscape:connector-curvature="0"
         d="m 8.3045073,772.8331 0.9620024,-4.6981 0.9619263,-4.75715 0.962002,-4.69847 0.962055,-4.5807 0.961925,-4.52201 0.962003,-4.34591 0.961926,-4.1111 0.961951,-3.8763 0.962029,-3.64116 0.962002,-3.2886 0.961952,-2.87771 0.961951,-2.5255 0.961951,-2.11425 0.96208,-1.64431 0.961951,-1.17469 0.961951,-0.70475 0.962004,-0.17611 0.961925,0.35255 0.962055,0.88085 1.923927,1.4095 0.961978,1.93781 0.961951,2.4668 0.962055,2.99511 0.961976,3.46504 0.961927,3.87597 0.962002,4.34591 0.961925,4.75715 0.962055,5.16806 0.962002,5.4619 0.961925,5.69671 0.962004,5.99021 0.961951,6.16665 0.962029,6.34276 0.961978,6.34276 0.961976,6.40112 0.961951,6.34276 0.961951,6.28404 0.962029,6.10797 0.961977,5.87281 0.961976,5.638 0.961927,5.34416 0.962002,4.87456 0.962027,4.522 0.96195,3.99371 0.962011,3.52374 1.9239,2.9364 0.962073,2.2904 0.961935,1.70295 0.961965,1.05729 0.961934,0.41091 0.961996,-0.2935 0.962058,-0.99823 0.961934,-1.70334 0.961997,-2.34907 0.961949,-3.05381 0.961996,-3.75889 0.962043,-4.34591 0.961919,-4.9329 0.96198,-5.52061 0.961981,-6.04927 0.961965,-6.51886 0.962027,-6.92975 0.961935,-7.34136 0.961996,-7.63451 0.961949,-7.86967 0.961935,-7.98705 0.962058,-8.16351 0.961996,-8.16317 0.961919,-8.10481 0.962011,-7.98705 0.961919,-7.81096 1.92407,-7.57581 0.961918,-7.16491 0.961981,-6.81271 0.961919,-6.34276 0.962058,-5.7554 0.961996,-5.16806 0.961934,-4.58071 0.961996,-3.8176 0.96195,-3.11251 0.962027,-2.29035 0.962012,-1.52691 0.961949,-0.64605 0.96195,0.1761 0.961981,0.9986 0.962027,1.93781 0.961981,2.7016 0.961949,3.58245 0.961996,4.34591 0.961935,5.16806 0.962027,5.87316 0.961996,6.57755 0.961947,7.22361 0.96194,7.81096 0.96199,8.33927 0.96206,8.75085 1.92393,9.10272 0.96195,9.45526 0.96195,9.63172 0.96206,9.74911 0.96192,9.80747 0.96201,9.74911 0.96195,9.63135 0.96199,9.39658"
         style="fill:none;stroke:#000000;stroke-width:4;stroke-linecap:butt;stroke-linejoin:miter;stroke-miterlimit:4;stroke-opacity:1;stroke-dasharray:none"
         id="path7475" />
      <path
         inkscape:connector-curvature="0"
         d="m 112.19833,821.75408 0.96203,9.04436 0.96194,8.69181 0.96199,8.16348 0.96195,7.63455 0.96198,6.98881 0.96203,6.34275 0.96198,5.52061 0.96195,4.69809 0.96195,3.81727 0.962,2.93639 0.96204,1.99684 0.96195,0.99861 0.96199,0.0587 0.96194,-0.93956 0.96199,-1.99683 0.96203,-2.9364 0.96195,-3.87601 0.96194,-4.81582 1.92394,-5.75543 0.96203,-6.57752 0.96198,-7.39972 0.96192,-8.10483 0.96201,-8.7505 0.96195,-9.39656 0.96203,-9.86652 0.96199,-10.33612 0.96197,-10.62996 0.96199,-10.86477 0.96192,-11.04121 0.96205,-11.09956 0.96196,-10.98252 0.96198,-10.86476 0.96198,-10.62996 0.96192,-10.27742 0.96203,-9.80781 0.96201,-9.27916 0.96195,-8.63312 0.962,-7.98705 0.96193,-7.16491 0.96206,-6.34276 0.96199,-5.46156 0.96192,-4.46366 0.96198,-3.4647 0.96198,-2.46681 1.92395,-1.35079 0.96198,-0.29351 0.96195,0.82216 0.96201,1.87944 0.96203,2.93641 0.96192,3.99336 0.96201,5.05065 0.96195,5.99056 0.96199,6.92976 0.96203,7.75226 0.96195,8.57442 0.96197,9.27915 0.96196,9.92522 0.96198,10.51256 0.96203,10.92347 0.96195,11.276 0.96201,11.56953 0.96192,11.74562 0.96201,11.74596 0.96203,11.74561 0.96195,11.51082 0.96199,11.33472 0.96194,10.92346 0.96196,10.45386 0.96205,9.86649 0.96196,9.27921 1.9239,8.51536 0.96197,7.69354 0.96204,6.87139 0.96198,5.87285 0.96195,4.87456 0.96201,3.87594 0.96192,2.76031 0.96203,1.64428"
         style="fill:none;stroke:#000000;stroke-width:4;stroke-linecap:butt;stroke-linejoin:miter;stroke-miterlimit:4;stroke-opacity:1;stroke-dasharray:none"
         id="path7477" />
    </g>
    <text
       xml:space="preserve"
       style="font-size:17.15348053px;font-style:italic;font-variant:normal;font-weight:bold;font-stretch:normal;text-align:start;line-height:125%;letter-spacing:0px;word-spacing:0px;writing-mode:lr-tb;text-anchor:start;fill:#000000;fill-opacity:1;stroke:none;font-family:URW Chancery L;-inkscape-font-specification:URW Chancery L Bold Italic"
       x="-10.123716"
       y="1021.8192"
       id="text3031"
       sodipodi:linespacing="125%"><tspan
         sodipodi:role="line"
         id="tspan3033"
         x="-10.123716"
         y="1021.8192"
         style="font-size:205.84178162px;font-style:italic;font-variant:normal;font-weight:bold;font-stretch:normal;font-family:URW Chancery L;-inkscape-font-specification:URW Chancery L Bold Italic">Ktan</tspan></text>
  </g>
</svg>
